PathFileType	4	(X/Y/Z)	D:\Share\Shared_Data\Ergonomics\Sit To Stand Pertubation\S1\Unperturbed_NoHarness.trc
DataRate	CameraRate	NumFrames	NumMarkers	Units	OrigDataRate	OrigDataStartFrame	OrigNumFrames	
100	100	14	18	m	100	1351	281
Frame#	Time	R_Thigh_Med			R_ASIS			R_Pelvis			V_Sacral			L_Pelvis			L_ASIS			Clavical			R_Acromium			L_Acromium			Sternum			Torso			R_Thigh_Lat			R_Thigh			R_Shank_Med			R_Shank_Lat			R_Shank			R_Heel			R_Toe			
		X1	Y1	Z1	X2	Y2	Z2	X3	Y3	Z3	X4	Y4	Z4	X5	Y5	Z5	X6	Y6	Z6	X7	Y7	Z7	X8	Y8	Z8	X9	Y9	Z9	X10	Y10	Z10	X11	Y11	Z11	X12	Y12	Z12	X13	Y13	Z13	X14	Y14	Z14	X15	Y15	Z15	X16	Y16	Z16	X17	Y17	Z17	X18	Y18	Z18	

1351	13.5	0.33864685	0.41730798	0.023874889	0.089922256	0.61070923	0.088240204	0.0094420185	0.63963751	0.11281034	-0.11017471	0.60052618	-0.018855457	0.016563234	0.64258112	-0.15127858	0.11200291	0.61786804	-0.11349152	0.3140867	0.8535304	-0.0057871375	0.30916058	0.95494153	0.13540807	0.25345061	0.95813403	-0.1950885	0.30247791	0.87753302	0.092554626	0.31628647	0.86865771	-0.059622005	0.33196289	0.4305574	0.1433078	0.21275215	0.55272229	0.095125572	0.31447302	0.096415428	0.07143399	0.28674368	0.098749931	0.15018268	0.31580096	0.30917606	0.16221422	0.24167842	0.029588068	0.093449562	0.44665341	0.053449726	0.12084956
1352	13.51	0.34103049	0.41808228	0.023925392	0.093600952	0.6102951	0.088733849	0.013450374	0.64078003	0.11294194	-0.10661976	0.60326257	-0.018890806	0.021350584	0.64350055	-0.15068623	0.11644243	0.61730109	-0.11286853	0.32256619	0.84964331	-0.0056312432	0.31808069	0.9516908	0.13471304	0.26281528	0.95580286	-0.19443056	0.31052792	0.87406549	0.092404762	0.32430606	0.86502332	-0.059181644	0.33340378	0.43020886	0.14301053	0.21459984	0.5530614	0.094801514	0.3145694	0.096268364	0.071305733	0.28692038	0.098749664	0.15009828	0.31693036	0.30902869	0.16196799	0.24163158	0.029567692	0.09353833	0.44662079	0.054055286	0.12104101
1353	13.52	0.34398099	0.41913052	0.024029377	0.097272789	0.6099574	0.089234833	0.017427296	0.64198676	0.11314281	-0.10301675	0.60580298	-0.018973186	0.026120676	0.64436023	-0.15014751	0.12083963	0.61676703	-0.11229609	0.33102606	0.84585266	-0.0054817286	0.32680151	0.94845416	0.13417725	0.27187466	0.95336816	-0.1939243	0.31838901	0.87066101	0.092262077	0.33213776	0.86144574	-0.058772621	0.3349978	0.42984387	0.14267511	0.21655275	0.55337213	0.094301521	0.31472662	0.096101334	0.071159157	0.28714673	0.098743469	0.14999207	0.31814172	0.30886487	0.1616689	0.24161856	0.029582998	0.093630592	0.44660699	0.054614212	0.12121999
1354	13.53	0.34713907	0.42012927	0.02410177	0.10092877	0.60969226	0.089720932	0.021363247	0.64316376	0.11334631	-0.099387848	0.60808685	-0.019102564	0.030823776	0.64514423	-0.14967189	0.12516138	0.61623328	-0.11181451	0.33941644	0.8421933	-0.0053344188	0.33526984	0.94522284	0.13389809	0.28058685	0.95086206	-0.19353683	0.32601355	0.86733167	0.092126755	0.33971851	0.85794763	-0.058402477	0.33675922	0.42946494	0.14231633	0.21863702	0.55365039	0.09366671	0.31494412	0.095913284	0.071002586	0.28741721	0.098724533	0.14987294	0.31943225	0.30867957	0.16133159	0.24164738	0.029614836	0.093709473	0.44662488	0.055040485	0.12137585
1355	13.54	0.35017966	0.42078183	0.024065361	0.10456964	0.60949469	0.090170464	0.025256834	0.64424768	0.11351524	-0.095749229	0.61009106	-0.01925457	0.035418594	0.64584613	-0.14926044	0.12938786	0.61569788	-0.11143847	0.34765262	0.83870471	-0.0051893821	0.34342487	0.94201532	0.1338961	0.2889169	0.94832355	-0.1932408	0.333362	0.8641026	0.092000122	0.34699554	0.85456049	-0.05807291	0.33870355	0.42907382	0.14194804	0.22089445	0.55388879	0.092978386	0.31521579	0.095703918	0.070844063	0.28772498	0.098687271	0.14974986	0.3208049	0.30846692	0.16097253	0.24172015	0.029649036	0.093763611	0.44669193	0.055217003	0.12148296
1356	13.55	0.35287848	0.42088504	0.023866663	0.10820449	0.60936029	0.090565826	0.02911418	0.64520935	0.11363994	-0.092108711	0.61182562	-0.019396061	0.039877296	0.64646893	-0.14890652	0.1335121	0.61517462	-0.11116203	0.35561572	0.83542688	-0.0050506878	0.35121259	0.93888879	0.13411662	0.29684009	0.94579834	-0.19301498	0.34040161	0.86101965	0.09188723	0.35393161	0.85132452	-0.057780083	0.34084457	0.4286698	0.14158006	0.22336952	0.55407965	0.092319275	0.31553201	0.0954739	0.070689766	0.2880643	0.098628822	0.1496295	0.32226794	0.30822119	0.1606069	0.24183179	0.029683769	0.093792122	0.44682092	0.055048	0.12151826
1357	13.56	0.35511395	0.42034119	0.023476822	0.11184468	0.60928833	0.090897652	0.032948215	0.64605121	0.11373248	-0.088464821	0.61332764	-0.019496201	0.044188782	0.64702429	-0.14859961	0.13753792	0.61468097	-0.11096555	0.3631759	0.83239545	-0.0049240651	0.3585921	0.93592688	0.1344545	0.30434323	0.94333771	-0.19284367	0.34710547	0.85814374	0.091792999	0.36050806	0.84828723	-0.057518177	0.34318854	0.42824902	0.14121446	0.22608531	0.55422034	0.091716698	0.315883	0.095224808	0.070542816	0.28843301	0.098549957	0.14951538	0.32383273	0.30793832	0.16024612	0.24197298	0.029726646	0.093802094	0.44700986	0.054533981	0.1214842
1358	13.57	0.35685156	0.41914297	0.022888716	0.11549704	0.60928552	0.091169167	0.036776127	0.64680139	0.1138187	-0.084808914	0.61465289	-0.019531647	0.04835891	0.64753088	-0.14832758	0.14147705	0.61423462	-0.11082158	0.37022369	0.82964014	-0.0048137851	0.36554288	0.9332113	0.13480624	0.31142422	0.9409964	-0.19271651	0.35345679	0.85553333	0.091723251	0.36672305	0.84549878	-0.057283306	0.34572919	0.42780569	0.1408454	0.22903622	0.55431561	0.09114534	0.3162612	0.094959419	0.070402008	0.28883298	0.098455444	0.14940689	0.32550946	0.30761792	0.1598947	0.24213365	0.029788097	0.093802963	0.44724445	0.053774044	0.12140975
1359	13.58	0.35815155	0.41737427	0.022120138	0.11916216	0.60936536	0.09139592	0.0406147	0.64750232	0.11392795	-0.081129593	0.61586725	-0.019486002	0.052406765	0.64801324	-0.14807738	0.14534496	0.61385895	-0.1107008	0.37669455	0.8271864	-0.0047208548	0.37207574	0.93080878	0.13510794	0.31809	0.93882977	-0.19262704	0.35945093	0.85323669	0.091684845	0.37258649	0.8430083	-0.057075142	0.34844717	0.42733383	0.14046234	0.23219902	0.55437512	0.090574097	0.31666049	0.0946819	0.070261475	0.28926773	0.098354156	0.1492995	0.3273042	0.30726495	0.15954883	0.24230513	0.029876272	0.093801987	0.44750989	0.052895741	0.1213317
1360	13.59	0.35918817	0.41522745	0.021219547	0.12284026	0.60954163	0.091599892	0.044476013	0.64819763	0.11408351	-0.077417442	0.61703961	-0.019345478	0.056358406	0.64849799	-0.14783594	0.14915671	0.61359125	-0.11057706	0.38257224	0.82505872	-0.0046432714	0.3782236	0.9287666	0.13533623	0.3243522	0.93689105	-0.19257071	0.36508636	0.85129144	0.091680969	0.3781153	0.84085901	-0.056895672	0.35131366	0.42682962	0.14005429	0.23554385	0.55440948	0.08999604	0.31707538	0.094397743	0.070112206	0.28973853	0.098257736	0.14918576	0.32921588	0.30688876	0.15919872	0.2424809	0.029993605	0.09380262	0.44779794	0.052005669	0.12128428
1361	13.6	0.36022076	0.41297733	0.020259033	0.12653631	0.6098241	0.091801666	0.048366425	0.64891925	0.11429366	-0.073668159	0.61823981	-0.019092915	0.060240398	0.6490119	-0.1475918	0.1529241	0.61348529	-0.11043008	0.38787637	0.82328406	-0.0045776429	0.38401636	0.92711084	0.13549779	0.33022403	0.935229	-0.1925428	0.37035532	0.84972241	0.091709351	0.38332986	0.83908606	-0.056746563	0.35429654	0.42629291	0.13961269	0.23904028	0.55442932	0.089432014	0.31750034	0.094113251	0.069945045	0.29024219	0.09817778	0.14905772	0.33123428	0.30650012	0.15883249	0.24265602	0.03013545	0.093804863	0.44810513	0.051189137	0.12130412
1362	13.61	0.36148837	0.41088342	0.019308376	0.13025792	0.61022064	0.092015388	0.05228809	0.64968018	0.11454793	-0.069883163	0.61954059	-0.018703199	0.064075005	0.64957953	-0.14733704	0.15665608	0.6136012	-0.11024483	0.39265677	0.82189056	-0.0045210524	0.38946982	0.9258501	0.13561714	0.33571741	0.93388501	-0.1925377	0.37525366	0.8485412	0.091764252	0.38825003	0.83771594	-0.056627533	0.3573656	0.42572714	0.13913235	0.24265936	0.55444403	0.08891153	0.31792996	0.09383432	0.069753212	0.29077072	0.098122574	0.14890929	0.33334009	0.30610895	0.15843895	0.24282657	0.030291967	0.093806572	0.44842773	0.050523972	0.12143657
1363	13.62	0.36310587	0.40909506	0.018410427	0.13401094	0.61074121	0.092247627	0.056240921	0.65049249	0.1148338	-0.066067719	0.62101837	-0.01814237	0.067877296	0.65022321	-0.14706699	0.16036028	0.6139873	-0.1100109	0.39699515	0.8209043	-0.0044721789	0.39459451	0.92498535	0.13572185	0.3408436	0.93289087	-0.1925499	0.37980206	0.84775073	0.091837547	0.39289639	0.83676611	-0.056537289	0.36049393	0.4251376	0.13861131	0.24637398	0.55446313	0.088450554	0.31835904	0.093565315	0.069533844	0.29131357	0.098094673	0.14873822	0.33550836	0.30572205	0.1580105	0.24298903	0.030451689	0.093805031	0.44875937	0.050085785	0.12173387
1364	13.63	0.36505142	0.40763904	0.017577482	0.1377973	0.61139716	0.092499054	0.060223846	0.65138165	0.11515263	-0.062228394	0.62274951	-0.017371559	0.071654152	0.65096442	-0.14677867	0.16404213	0.61466187	-0.10972593	0.40099838	0.82034503	-0.0044309716	0.39940674	0.92451776	0.13583215	0.34561429	0.93226715	-0.19257474	0.38405383	0.84734998	0.091919914	0.39729602	0.83624432	-0.056475864	0.36365671	0.42452991	0.13805101	0.25016049	0.55449701	0.088048584	0.31878217	0.093308823	0.069288086	0.29186053	0.098090919	0.14854672	0.33771359	0.30534189	0.15754549	0.24314001	0.030604528	0.093797935	0.44909219	0.049938011	0.12224336
